<?xml version="1.0" encoding="utf-8"?>
<!-- Generator: Adobe Illustrator 25.2.1, SVG Export Plug-In . SVG Version: 6.00 Build 0)  -->
<svg version="1.1" id="Слой_1" xmlns="http://www.w3.org/2000/svg" xmlns:xlink="http://www.w3.org/1999/xlink" x="0px" y="0px"
	 viewBox="0 0 52.4 52.6" style="enable-background:new 0 0 52.4 52.6;" xml:space="preserve">
<style type="text/css">
	.st0{fill-rule:evenodd;clip-rule:evenodd;fill:#D06519;}
	.st1{fill-rule:evenodd;clip-rule:evenodd;fill:#9A3C2A;}
	.st2{fill-rule:evenodd;clip-rule:evenodd;fill:#002F3A;}
	.st3{fill-rule:evenodd;clip-rule:evenodd;fill:#00000D;}
	.st4{fill-rule:evenodd;clip-rule:evenodd;fill:#F7F7F7;}
	.st5{fill-rule:evenodd;clip-rule:evenodd;fill:#59A2B2;}
	
		.st6{fill-rule:evenodd;clip-rule:evenodd;fill:none;stroke:#9A3C2A;stroke-width:1.417;stroke-linecap:round;stroke-linejoin:round;stroke-miterlimit:22.9256;}
	.st7{fill-rule:evenodd;clip-rule:evenodd;fill:#CAAF5F;}
	
		.st8{fill-rule:evenodd;clip-rule:evenodd;fill:none;stroke:#DFCDA0;stroke-width:1.417;stroke-linecap:round;stroke-linejoin:round;stroke-miterlimit:22.9256;}
	.st9{fill-rule:evenodd;clip-rule:evenodd;fill:#FFFFFF;}
	
		.st10{fill-rule:evenodd;clip-rule:evenodd;fill:none;stroke:#DFCDA0;stroke-width:1.0864;stroke-linecap:round;stroke-linejoin:round;stroke-miterlimit:22.9256;}
	
		.st11{fill-rule:evenodd;clip-rule:evenodd;fill:none;stroke:#9A3C2A;stroke-width:1.0864;stroke-linecap:round;stroke-linejoin:round;stroke-miterlimit:22.9256;}
</style>
<rect x="0" y="0" class="st2" width="366.2" height="427.7"/>
<g>
	<g>
		<path class="st5" d="M-7.8-7.6c1.7-1.7,0.3-3.3,0.3-3.3l-2-2c0,0-1.4-1.6,0.3-3.3c1.7-1.7,3.3-0.3,3.3-0.3l1.3,1.3
			c-1.7-2.2-1.6-5.5,0.5-7.5c2.2-2.2,5.8-2.2,8.1,0c2.1,2.1,2.2,5.3,0.5,7.5l1.3-1.3c0,0,1.6-1.4,3.3,0.3c1.7,1.7,0.3,3.3,0.3,3.3
			l-2,2c0,0-1.4,1.6,0.3,3.3c1.7,1.7,3.3,0.3,3.3,0.3l2-2c0,0,1.6-1.4,3.3,0.3c1.7,1.7,0.3,3.3,0.3,3.3l-1.3,1.4
			c2.2-1.7,5.5-1.6,7.5,0.5c2.2,2.2,2.2,5.9,0,8.1c-2.1,2.1-5.3,2.2-7.5,0.5l1.3,1.3c0,0,1.4,1.6-0.3,3.3c-1.7,1.7-3.3,0.3-3.3,0.3
			l-2-2c0,0-1.6-1.4-3.3,0.3c-1.7,1.7-0.3,3.3-0.3,3.3l2,2c0,0,1.4,1.6-0.3,3.3c-1.7,1.7-3.3,0.3-3.3,0.3l-1.3-1.3
			c1.7,2.2,1.6,5.5-0.5,7.5c-2.2,2.2-5.9,2.2-8.1,0c-2.1-2.1-2.2-5.3-0.5-7.5l-1.4,1.3c0,0-1.6,1.4-3.3-0.3
			c-1.7-1.7-0.3-3.3-0.3-3.3l2-2c0,0,1.4-1.6-0.3-3.3c-1.7-1.7-3.3-0.3-3.3-0.3l-2,2c0,0-1.6,1.4-3.3-0.3c-1.7-1.7-0.3-3.3-0.3-3.3
			l1.3-1.3c-2.2,1.7-5.5,1.6-7.5-0.5c-2.2-2.2-2.2-5.9,0-8.1c2.1-2.1,5.3-2.2,7.5-0.5l-1.3-1.3c0,0-1.4-1.6,0.3-3.3
			c1.7-1.7,3.3-0.3,3.3-0.3l2,2C-11.1-7.3-9.5-5.9-7.8-7.6L-7.8-7.6z M3.9,4.1c2.2-2.2,2.2-5.7,0-7.8c-2.2-2.2-5.7-2.2-7.8,0
			c-2.2,2.2-2.2,5.7,0,7.8C-1.8,6.3,1.8,6.3,3.9,4.1z"/>
		<path class="st5" d="M44.5-7.6c1.7-1.7,0.3-3.3,0.3-3.3l-2-2c0,0-1.4-1.6,0.3-3.3c1.7-1.7,3.3-0.3,3.3-0.3l1.3,1.3
			c-1.7-2.2-1.6-5.5,0.5-7.5c2.2-2.2,5.8-2.2,8.1,0c2.1,2.1,2.2,5.3,0.5,7.5l1.3-1.3c0,0,1.6-1.4,3.3,0.3c1.7,1.7,0.3,3.3,0.3,3.3
			l-2,2c0,0-1.4,1.6,0.3,3.3c1.7,1.7,3.3,0.3,3.3,0.3l2-2c0,0,1.6-1.4,3.3,0.3C70.4-7.3,69-5.7,69-5.7l-1.3,1.4
			c2.2-1.7,5.5-1.6,7.5,0.5c2.2,2.2,2.2,5.9,0,8.1c-2.1,2.1-5.3,2.2-7.5,0.5L69,6.1c0,0,1.4,1.6-0.3,3.3c-1.7,1.7-3.3,0.3-3.3,0.3
			l-2-2c0,0-1.6-1.4-3.3,0.3c-1.7,1.7-0.3,3.3-0.3,3.3l2,2c0,0,1.4,1.6-0.3,3.3c-1.7,1.7-3.3,0.3-3.3,0.3l-1.3-1.3
			c1.7,2.2,1.6,5.5-0.5,7.5c-2.2,2.2-5.9,2.2-8.1,0c-2.1-2.1-2.2-5.3-0.5-7.5l-1.4,1.3c0,0-1.6,1.4-3.3-0.3
			c-1.7-1.7-0.3-3.3-0.3-3.3l2-2c0,0,1.4-1.6-0.3-3.3c-1.7-1.7-3.3-0.3-3.3-0.3l-2,2c0,0-1.6,1.4-3.3-0.3c-1.7-1.7-0.3-3.3-0.3-3.3
			L37,4.7c-2.2,1.7-5.5,1.6-7.5-0.5c-2.2-2.2-2.2-5.9,0-8.1c2.1-2.1,5.3-2.2,7.5-0.5l-1.3-1.3c0,0-1.4-1.6,0.3-3.3
			c1.7-1.7,3.3-0.3,3.3-0.3l2,2C41.2-7.3,42.9-5.9,44.5-7.6L44.5-7.6z M56.2,4.1c2.2-2.2,2.2-5.7,0-7.8c-2.2-2.2-5.7-2.2-7.8,0
			c-2.2,2.2-2.2,5.7,0,7.8C50.6,6.3,54.1,6.3,56.2,4.1z"/>
	</g>
	<g>
		<path class="st5" d="M-7.8,44.6c1.7-1.7,0.3-3.3,0.3-3.3l-2-2c0,0-1.4-1.6,0.3-3.3c1.7-1.7,3.3-0.3,3.3-0.3l1.3,1.3
			c-1.7-2.2-1.6-5.5,0.5-7.5c2.2-2.2,5.8-2.2,8.1,0c2.1,2.1,2.2,5.3,0.5,7.5l1.3-1.3c0,0,1.6-1.4,3.3,0.3c1.7,1.7,0.3,3.3,0.3,3.3
			l-2,2c0,0-1.4,1.6,0.3,3.3c1.7,1.7,3.3,0.3,3.3,0.3l2-2c0,0,1.6-1.4,3.3,0.3c1.7,1.7,0.3,3.3,0.3,3.3l-1.3,1.4
			c2.2-1.7,5.5-1.6,7.5,0.5c2.2,2.2,2.2,5.9,0,8.1c-2.1,2.1-5.3,2.2-7.5,0.5l1.3,1.3c0,0,1.4,1.6-0.3,3.3c-1.7,1.7-3.3,0.3-3.3,0.3
			l-2-2c0,0-1.6-1.4-3.3,0.3c-1.7,1.7-0.3,3.3-0.3,3.3l2,2c0,0,1.4,1.6-0.3,3.3c-1.7,1.7-3.3,0.3-3.3,0.3l-1.3-1.3
			c1.7,2.2,1.6,5.5-0.5,7.5c-2.2,2.2-5.9,2.2-8.1,0c-2.1-2.1-2.2-5.3-0.5-7.5l-1.4,1.3c0,0-1.6,1.4-3.3-0.3
			c-1.7-1.7-0.3-3.3-0.3-3.3l2-2c0,0,1.4-1.6-0.3-3.3c-1.7-1.7-3.3-0.3-3.3-0.3l-2,2c0,0-1.6,1.4-3.3-0.3c-1.7-1.7-0.3-3.3-0.3-3.3
			l1.3-1.3c-2.2,1.7-5.5,1.6-7.5-0.5c-2.2-2.2-2.2-5.9,0-8.1c2.1-2.1,5.3-2.2,7.5-0.5l-1.3-1.3c0,0-1.4-1.6,0.3-3.3
			c1.7-1.7,3.3-0.3,3.3-0.3l2,2C-11.1,44.9-9.5,46.3-7.8,44.6L-7.8,44.6z M3.9,56.3c2.2-2.2,2.2-5.7,0-7.8c-2.2-2.2-5.7-2.2-7.8,0
			c-2.2,2.2-2.2,5.7,0,7.8C-1.8,58.5,1.8,58.5,3.9,56.3z"/>
		<path class="st5" d="M44.5,44.6c1.7-1.7,0.3-3.3,0.3-3.3l-2-2c0,0-1.4-1.6,0.3-3.3c1.7-1.7,3.3-0.3,3.3-0.3l1.3,1.3
			c-1.7-2.2-1.6-5.5,0.5-7.5c2.2-2.2,5.8-2.2,8.1,0c2.1,2.1,2.2,5.3,0.5,7.5l1.3-1.3c0,0,1.6-1.4,3.3,0.3c1.7,1.7,0.3,3.3,0.3,3.3
			l-2,2c0,0-1.4,1.6,0.3,3.3c1.7,1.7,3.3,0.3,3.3,0.3l2-2c0,0,1.6-1.4,3.3,0.3c1.7,1.7,0.3,3.3,0.3,3.3l-1.3,1.4
			c2.2-1.7,5.5-1.6,7.5,0.5c2.2,2.2,2.2,5.9,0,8.1c-2.1,2.1-5.3,2.2-7.5,0.5l1.3,1.3c0,0,1.4,1.6-0.3,3.3c-1.7,1.7-3.3,0.3-3.3,0.3
			l-2-2c0,0-1.6-1.4-3.3,0.3c-1.7,1.7-0.3,3.3-0.3,3.3l2,2c0,0,1.4,1.6-0.3,3.3c-1.7,1.7-3.3,0.3-3.3,0.3l-1.3-1.3
			c1.7,2.2,1.6,5.5-0.5,7.5c-2.2,2.2-5.9,2.2-8.1,0c-2.1-2.1-2.2-5.3-0.5-7.5l-1.4,1.3c0,0-1.6,1.4-3.3-0.3
			c-1.7-1.7-0.3-3.3-0.3-3.3l2-2c0,0,1.4-1.6-0.3-3.3c-1.7-1.7-3.3-0.3-3.3-0.3l-2,2c0,0-1.6,1.4-3.3-0.3c-1.7-1.7-0.3-3.3-0.3-3.3
			l1.3-1.3c-2.2,1.7-5.5,1.6-7.5-0.5c-2.2-2.2-2.2-5.9,0-8.1c2.1-2.1,5.3-2.2,7.5-0.5l-1.3-1.3c0,0-1.4-1.6,0.3-3.3
			c1.7-1.7,3.3-0.3,3.3-0.3l2,2C41.2,44.9,42.9,46.3,44.5,44.6L44.5,44.6z M56.2,56.3c2.2-2.2,2.2-5.7,0-7.8c-2.2-2.2-5.7-2.2-7.8,0
			c-2.2,2.2-2.2,5.7,0,7.8C50.6,58.5,54.1,58.5,56.2,56.3z"/>
	</g>
	<g>
		<ellipse transform="matrix(0.2622 -0.965 0.965 0.2622 -5.9701 44.5656)" class="st5" cx="26.2" cy="26.2" rx="8.5" ry="8.5"/>
	</g>
</g>
</svg>
